<?xml version="1.0" encoding="utf-8"?>
<!-- Generator: Adobe Illustrator 16.0.0, SVG Export Plug-In . SVG Version: 6.00 Build 0)  -->
<!DOCTYPE svg PUBLIC "-//W3C//DTD SVG 1.1//EN" "http://www.w3.org/Graphics/SVG/1.1/DTD/svg11.dtd">
<svg version="1.1" id="Layer_1" xmlns="http://www.w3.org/2000/svg" xmlns:xlink="http://www.w3.org/1999/xlink" x="0px" y="0px"
	 width="100px" height="100px" viewBox="0 0 100 100" enable-background="new 0 0 100 100" xml:space="preserve">
<g>
	<path fill="#FFFFFF" d="M65.059,68.895l-5.133,5.133v-30.34c0-2.209-1.791-4-4-4s-4,1.791-4,4v30.342l-5.135-5.135
		c-1.562-1.562-4.096-1.562-5.656,0c-1.562,1.562-1.562,4.096,0,5.656L53.09,86.506c0.189,0.19,0.398,0.36,0.623,0.51
		c0.064,0.043,0.137,0.07,0.203,0.109c0.158,0.093,0.316,0.188,0.486,0.257c0.091,0.037,0.186,0.056,0.276,0.086
		c0.156,0.052,0.31,0.107,0.472,0.14c0.133,0.025,0.268,0.027,0.399,0.041c0.125,0.012,0.246,0.037,0.375,0.037
		c0.142,0,0.275-0.026,0.412-0.041c0.121-0.013,0.241-0.014,0.359-0.037c0.18-0.034,0.348-0.095,0.518-0.152
		c0.075-0.025,0.154-0.04,0.229-0.071c0.194-0.08,0.377-0.184,0.557-0.292c0.043-0.025,0.09-0.044,0.133-0.072
		c0.23-0.152,0.443-0.328,0.639-0.523l11.943-11.943c1.562-1.562,1.562-4.095,0-5.656C69.154,67.332,66.621,67.332,65.059,68.895z"
		/>
	<path fill="#FFFFFF" d="M59.119,16.518c-11.967,0-22.84,6.983-27.907,17.646c-11.696,0.537-21.044,10.221-21.044,22.048
		c0,12.169,9.898,22.069,22.068,22.069c2.209,0,4-1.791,4-4s-1.791-4-4-4c-7.758,0-14.068-6.312-14.068-14.069
		c0-7.759,6.311-14.071,14.068-14.071c0.354,0,0.744,0.02,1.258,0.065l3.062,0.271l1.05-2.889
		c3.274-9.014,11.921-15.07,21.514-15.07c12.617,0,22.883,10.265,22.883,22.882c0,6.129-2.396,11.888-6.74,16.216
		c-1.563,1.559-1.568,4.092-0.01,5.657c1.558,1.564,4.09,1.568,5.656,0.011c5.862-5.841,9.094-13.612,9.094-21.884
		C90.002,30.371,76.146,16.518,59.119,16.518z"/>
</g>
</svg>
