<?xml version="1.0" encoding="utf-8"?>
<!-- Generator: Adobe Illustrator 16.0.0, SVG Export Plug-In . SVG Version: 6.00 Build 0)  -->
<!DOCTYPE svg PUBLIC "-//W3C//DTD SVG 1.1//EN" "http://www.w3.org/Graphics/SVG/1.1/DTD/svg11.dtd">
<svg version="1.1" id="Your_Icon" xmlns="http://www.w3.org/2000/svg" xmlns:xlink="http://www.w3.org/1999/xlink" x="0px" y="0px"
	 width="100px" height="100px" viewBox="0 0 100 100" enable-background="new 0 0 100 100" xml:space="preserve">
<g>
	<path fill="#FFFFFF" d="M44.255,61.79h-0.173c-9.952-0.116-18.475-7.313-20.266-17.11c-0.699-3.822-0.273-7.616,1.024-11.047
		c-0.465,0.168-0.932,0.334-1.377,0.547c-0.104,0.05-0.203,0.108-0.305,0.159c-0.536,0.271-1.055,0.574-1.556,0.906
		c-0.11,0.073-0.224,0.14-0.333,0.216c-0.548,0.383-1.072,0.805-1.57,1.26c-0.106,0.101-0.207,0.203-0.312,0.303
		c-0.444,0.432-0.868,0.889-1.261,1.376c-0.058,0.071-0.121,0.136-0.178,0.209c-0.422,0.543-0.802,1.127-1.153,1.734
		c-0.082,0.141-0.158,0.284-0.235,0.427c-0.34,0.635-0.654,1.288-0.908,1.981c-2.918,7.969,1.173,16.797,9.144,19.719
		c1.184,0.436,2.387,0.695,3.588,0.828l4.487,9.675l5.793,2.125l-2.123,5.791l0.04,0.088l5.792,2.121l-2.122,5.793l0.04,0.086
		l5.793,2.123l-1.923,5.254l10.027,3.677l3.871-10.575l-5.279-11.404L45.22,61.76C44.898,61.775,44.576,61.79,44.255,61.79z"/>
	<path fill="#FFFFFF" d="M95.618,65.357l-11.75-8.122L61.759,41.965c0.083-1.37,0.021-2.766-0.235-4.176
		c-0.104-0.563-0.236-1.114-0.39-1.652c-0.05-0.176-0.112-0.346-0.17-0.519c-0.112-0.359-0.229-0.715-0.364-1.062
		c-0.078-0.199-0.168-0.389-0.25-0.583c-0.137-0.311-0.272-0.62-0.426-0.919c-0.101-0.198-0.206-0.389-0.312-0.582
		c-0.156-0.284-0.319-0.564-0.492-0.838c-0.12-0.188-0.239-0.372-0.366-0.555c-0.18-0.266-0.369-0.525-0.565-0.778
		c-0.133-0.173-0.266-0.346-0.401-0.512c-0.212-0.252-0.433-0.497-0.658-0.738c-0.14-0.149-0.274-0.303-0.419-0.447
		c-0.256-0.256-0.521-0.497-0.794-0.736c-0.127-0.113-0.246-0.233-0.379-0.341c-0.406-0.341-0.825-0.664-1.261-0.964
		c-0.023-0.015-0.047-0.028-0.069-0.043c-0.416-0.284-0.842-0.548-1.28-0.796c-0.152-0.086-0.312-0.163-0.469-0.245
		c-0.314-0.165-0.628-0.327-0.954-0.474c-0.187-0.083-0.38-0.158-0.571-0.236c-0.302-0.123-0.605-0.243-0.916-0.351
		c-0.206-0.071-0.414-0.135-0.623-0.198c-0.307-0.093-0.616-0.178-0.928-0.254c-0.021-0.005-0.043-0.008-0.064-0.015
		c-0.237,6.299-2.76,12.252-7.299,16.792c-0.964,0.966-2.247,1.496-3.611,1.496c-1.364,0-2.646-0.53-3.611-1.496
		c-1.991-1.99-1.991-5.231,0-7.222c2.439-2.438,3.896-5.557,4.262-8.895c-7.728,2.929-12.517,11.021-10.977,19.439
		c1.528,8.355,8.77,14.223,16.957,14.32c0.377,0.005,0.758-0.014,1.139-0.032c0.179-0.011,0.356-0.011,0.535-0.023
		c0.561-0.048,1.124-0.119,1.688-0.223c1.41-0.258,2.74-0.694,3.993-1.258l9.972,6.89l6.897-1.261l1.262,6.896l0.086,0.062
		l6.898-1.262l1.256,6.896l0.09,0.061l6.896-1.261l1.146,6.254l11.942-2.185L95.618,65.357z"/>
	<path fill="#FFFFFF" d="M36.286,35.929c-0.665,0.665-0.665,1.742,0,2.407c0.333,0.333,0.768,0.499,1.204,0.499
		c0.436,0,0.871-0.166,1.204-0.499c5.015-5.016,7.048-11.881,6.148-18.417c-0.626-4.55-2.659-8.94-6.147-12.43
		C34.442,3.236,28.856,1.11,23.271,1.11c-1.262,0-2.52,0.124-3.767,0.341c-0.133,0.023-0.269,0.032-0.402,0.057
		c-0.315,0.062-0.624,0.154-0.936,0.229c-0.371,0.088-0.744,0.162-1.11,0.27C17,2.024,16.944,2.049,16.889,2.065
		c-2.388,0.727-4.666,1.887-6.734,3.449c-0.801,0.604-1.58,1.247-2.31,1.976c-8.504,8.504-8.504,22.342,0,30.847
		c1.367,1.366,2.897,2.522,4.542,3.468c0.026-0.073,0.042-0.147,0.068-0.221c0.284-0.776,0.636-1.546,1.131-2.467
		c0.076-0.144,0.153-0.283,0.231-0.419c-1.287-0.769-2.487-1.689-3.566-2.769c-7.176-7.176-7.176-18.855,0-26.033
		c1.085-1.085,2.283-1.986,3.542-2.744c0.647-0.389,1.317-0.718,1.997-1.021c0.166-0.074,0.33-0.146,0.496-0.213
		c0.679-0.279,1.367-0.527,2.067-0.721c0.061-0.018,0.123-0.027,0.184-0.042c0.657-0.175,1.322-0.304,1.991-0.405
		c0.173-0.026,0.345-0.052,0.518-0.073c0.715-0.087,1.433-0.141,2.152-0.144c0.025,0,0.051-0.005,0.076-0.005
		c0.324,0,0.646,0.021,0.969,0.04c0.165,0.008,0.33,0.007,0.495,0.02c0.521,0.042,1.042,0.103,1.559,0.188
		c2.866,0.475,5.633,1.629,8.054,3.46c0.671,0.507,1.324,1.046,1.935,1.657c2.881,2.881,4.584,6.489,5.152,10.24
		C42.287,25.725,40.583,31.631,36.286,35.929z"/>
</g>
</svg>
