<?xml version="1.0" encoding="utf-8"?>
<!-- Generator: Adobe Illustrator 16.0.0, SVG Export Plug-In . SVG Version: 6.00 Build 0)  -->
<!DOCTYPE svg PUBLIC "-//W3C//DTD SVG 1.1//EN" "http://www.w3.org/Graphics/SVG/1.1/DTD/svg11.dtd">
<svg version="1.1" id="Layer_1" xmlns="http://www.w3.org/2000/svg" xmlns:xlink="http://www.w3.org/1999/xlink" x="0px" y="0px"
	 width="200px" height="50px" viewBox="0 0 200 50" enable-background="new 0 0 200 50" xml:space="preserve">
<polygon fill="#7DB48C" points="0,0 0,50 199.399,50 150,25.25 200,0.199 200,0 "/>
<g>
	<path fill="#FFFFFF" d="M31.646,27.819v10.954h-5.373V11.245h8.987c2.711,0,4.84,0.716,6.385,2.147
		c1.544,1.432,2.318,3.422,2.318,5.969c0,1.438-0.322,2.678-0.966,3.719c-0.643,1.041-1.583,1.87-2.818,2.487
		c1.412,0.479,2.431,1.274,3.056,2.384c0.624,1.11,0.937,2.498,0.937,4.163v1.949c0,0.756,0.088,1.567,0.265,2.431
		c0.176,0.863,0.485,1.492,0.927,1.883v0.396H39.8c-0.441-0.403-0.719-1.059-0.832-1.967c-0.114-0.908-0.171-1.836-0.171-2.781
		v-1.874c0-1.374-0.28-2.439-0.842-3.197c-0.561-0.757-1.365-1.135-2.412-1.135H31.646z M31.646,23.524h3.595
		c1.098,0,1.93-0.334,2.497-1.002c0.568-0.668,0.852-1.622,0.852-2.857c0-1.261-0.283-2.264-0.852-3.008
		c-0.567-0.745-1.394-1.116-2.478-1.116h-3.614V23.524z"/>
	<path fill="#FFFFFF" d="M62.882,26.684H53.63v7.796h10.879v4.294H48.238V11.226h16.233v4.295H53.63v6.868h9.252V26.684z"/>
	<path fill="#FFFFFF" d="M84.583,29.9l0.057,0.114c0.025,3.026-0.693,5.31-2.156,6.849c-1.464,1.539-3.621,2.308-6.471,2.308
		c-2.851,0-5.127-0.872-6.83-2.62c-1.703-1.747-2.554-4.223-2.554-7.426v-8.231c0-3.191,0.823-5.666,2.469-7.426
		c1.646-1.759,3.85-2.639,6.612-2.639c2.926,0,5.137,0.782,6.631,2.346c1.495,1.564,2.267,3.879,2.318,6.944l-0.058,0.114h-5.184
		c0.076-1.81-0.17-3.115-0.738-3.912c-0.568-0.798-1.558-1.196-2.97-1.196c-1.211,0-2.138,0.473-2.781,1.42s-0.965,2.38-0.965,4.299
		v8.276c0,1.945,0.344,3.391,1.031,4.337c0.687,0.947,1.693,1.421,3.018,1.421c1.299,0,2.204-0.375,2.715-1.126
		s0.735-2.034,0.672-3.851H84.583z"/>
	<path fill="#FFFFFF" d="M102.538,26.684h-9.252v7.796h10.879v4.294H87.894V11.226h16.233v4.295H93.286v6.868h9.252V26.684z"/>
	<path fill="#FFFFFF" d="M126.245,38.773h-5.354l-8.42-17.615l-0.113,0.038v17.577h-5.393V11.226h5.393l8.42,17.596l0.113-0.038
		V11.226h5.354V38.773z"/>
	<path fill="#FFFFFF" d="M146.109,15.521h-6.205v23.252h-5.373V15.521h-6.168v-4.295h17.746V15.521z"/>
</g>
</svg>
