<?xml version="1.0" encoding="utf-8"?>
<!-- Generator: Adobe Illustrator 16.0.0, SVG Export Plug-In . SVG Version: 6.00 Build 0)  -->
<!DOCTYPE svg PUBLIC "-//W3C//DTD SVG 1.1//EN" "http://www.w3.org/Graphics/SVG/1.1/DTD/svg11.dtd">
<svg version="1.1" id="svg2" xmlns:svg="http://www.w3.org/2000/svg"
	 xmlns="http://www.w3.org/2000/svg" xmlns:xlink="http://www.w3.org/1999/xlink" x="0px" y="0px" width="1800px" height="600px"
	 viewBox="0 0 1800 600" enable-background="new 0 0 1800 600" xml:space="preserve">
<g id="g1384" transform="translate(-224,-2)">
	<g id="g1321" transform="translate(6.14935,-66.0035)">
	</g>
</g>
<path id="path1360" fill="none" stroke="#E15618" stroke-width="10.1771" d="M72.137,105.624
	c34.34,19.448,68.679,38.896,107.826,38.896 M287.689,105.623c-34.339,19.449-68.679,38.896-107.825,38.896 M287.682,105.627
	c34.34-19.449,68.679-38.898,107.826-38.898 M503.234,105.627c-34.34-19.448-68.679-38.897-107.826-38.897 M503.288,105.636
	c34.34,19.448,68.68,38.896,107.825,38.896 M718.839,105.635c-34.34,19.449-68.678,38.896-107.825,38.896 M718.832,105.639
	c34.34-19.45,68.679-38.898,107.826-38.898 M934.385,105.639c-34.34-19.45-68.678-38.897-107.826-38.897 M934.365,105.63
	c34.338,19.448,68.678,38.896,107.824,38.896 M1149.916,105.629c-34.338,19.449-68.68,38.897-107.826,38.897 M1149.908,105.632
	c34.338-19.448,68.68-38.897,107.826-38.897 M1365.461,105.633c-34.338-19.448-68.68-38.897-107.826-38.897 M1365.455,105.63
	c34.34,19.449,68.678,38.897,107.828,38.897 M1581.008,105.63c-34.34,19.448-68.678,38.896-107.826,38.896 M1581,105.632
	c34.34-19.447,68.68-38.896,107.826-38.896"/>
<path id="path4058" fill="none" stroke="#FFB900" stroke-width="10.1771" d="M162.929,204.277
	c-28.915-19.449-57.83-38.897-90.792-38.897 M162.925,204.273c28.915,19.449,57.829,38.897,90.792,38.897 M344.425,204.273
	c-28.914,19.449-57.829,38.897-90.791,38.897 M344.419,204.276c28.915-19.448,57.83-38.897,90.792-38.897 M525.919,204.277
	c-28.914-19.448-57.829-38.897-90.792-38.897 M525.901,204.268c28.916,19.448,57.83,38.897,90.794,38.897 M707.402,204.267
	c-28.914,19.448-57.829,38.897-90.792,38.897 M707.397,204.271c28.915-19.449,57.83-38.898,90.792-38.898 M888.898,204.271
	c-28.914-19.449-57.83-38.897-90.792-38.897 M888.943,204.279c28.915,19.449,57.831,38.896,90.792,38.896 M1070.441,204.279
	c-28.912,19.449-57.826,38.896-90.791,38.896 M1070.438,204.282c28.914-19.448,57.83-38.897,90.793-38.897 M1251.938,204.283
	c-28.914-19.449-57.83-38.897-90.791-38.897 M1251.92,204.273c28.914,19.449,57.83,38.897,90.793,38.897 M1433.422,204.272
	c-28.916,19.449-57.83,38.896-90.793,38.896 M1433.414,204.276c28.916-19.449,57.83-38.897,90.793-38.897 M1614.916,204.277
	c-28.914-19.449-57.83-38.897-90.793-38.897 M1614.912,204.273c28.912,19.449,57.83,38.897,90.791,38.897"/>
<path id="path5806" fill="none" stroke="#707D00" stroke-width="10.1771" d="M143.705,302.916
	c-22.792,19.448-45.584,38.897-71.568,38.897 M143.701,302.92c22.793-19.449,45.585-38.898,71.568-38.898 M286.772,302.921
	c-22.793-19.449-45.585-38.897-71.569-38.897 M286.77,302.917c22.792,19.448,45.585,38.897,71.568,38.897 M429.84,302.917
	c-22.792,19.448-45.585,38.896-71.568,38.896 M429.836,302.92c22.792-19.448,45.585-38.897,71.568-38.897 M572.907,302.921
	c-22.792-19.449-45.585-38.897-71.568-38.897 M572.895,302.912c22.792,19.448,45.584,38.896,71.568,38.896 M715.965,302.911
	c-22.792,19.448-45.584,38.897-71.568,38.897 M715.96,302.915c22.793-19.449,45.585-38.898,71.569-38.898 M859.033,302.915
	c-22.793-19.449-45.586-38.897-71.569-38.897 M859.068,302.924c22.793,19.447,45.586,38.896,71.569,38.896 M1002.139,302.923
	c-22.791,19.447-45.584,38.896-71.568,38.896 M1002.135,302.926c22.793-19.449,45.584-38.898,71.568-38.898 M1145.207,302.927
	c-22.793-19.449-45.586-38.898-71.57-38.898 M1145.191,302.917c22.793,19.448,45.586,38.897,71.57,38.897 M1288.266,302.916
	c-22.793,19.448-45.586,38.897-71.57,38.897 M1288.26,302.92c22.791-19.449,45.586-38.898,71.568-38.898 M1431.332,302.921
	c-22.793-19.449-45.586-38.897-71.57-38.897 M1431.328,302.917c22.793,19.448,45.586,38.897,71.568,38.897 M1574.4,302.917
	c-22.793,19.448-45.586,38.896-71.568,38.896 M1574.396,302.92c22.791-19.448,45.584-38.897,71.568-38.897 M1717.467,302.921
	c-22.793-19.449-45.586-38.897-71.568-38.897"/>
<path id="path6681" fill="none" stroke="#7DB48B" stroke-width="10.1771" d="M72.137,401.567
	c16.452,19.448,32.902,38.896,51.657,38.896 M175.402,401.565c-16.451,19.449-32.902,38.898-51.656,38.898 M175.398,401.57
	c16.451-19.45,32.902-38.899,51.656-38.899 M278.663,401.571c-16.451-19.45-32.902-38.899-51.657-38.899 M278.653,401.561
	c16.45,19.448,32.902,38.898,51.655,38.898 M381.918,401.56c-16.452,19.448-32.902,38.898-51.657,38.898 M381.915,401.563
	c16.451-19.449,32.901-38.898,51.655-38.898 M485.179,401.564c-16.451-19.449-32.903-38.898-51.657-38.898 M485.176,401.562
	c16.45,19.447,32.901,38.897,51.656,38.897 M588.44,401.561c-16.451,19.448-32.901,38.897-51.656,38.897 M588.437,401.564
	c16.452-19.449,32.902-38.898,51.656-38.898 M691.701,401.564c-16.45-19.448-32.9-38.897-51.655-38.897 M691.691,401.556
	c16.451,19.447,32.902,38.896,51.656,38.896 M794.956,401.555c-16.451,19.448-32.902,38.896-51.657,38.896 M794.953,401.558
	c16.45-19.449,32.901-38.897,51.656-38.897 M898.216,401.559c-16.451-19.449-32.9-38.897-51.656-38.897 M898.242,401.567
	c16.451,19.448,32.902,38.896,51.657,38.896 M1001.508,401.565c-16.453,19.449-32.903,38.898-51.656,38.898 M1001.504,401.57
	c16.451-19.45,32.902-38.899,51.656-38.899 M1104.768,401.571c-16.451-19.45-32.902-38.899-51.656-38.899 M1104.758,401.561
	c16.451,19.448,32.902,38.898,51.656,38.898 M1208.023,401.56c-16.451,19.448-32.902,38.898-51.656,38.898 M1208.02,401.563
	c16.449-19.449,32.9-38.898,51.654-38.898 M1311.283,401.564c-16.451-19.449-32.902-38.898-51.656-38.898 M1311.281,401.562
	c16.451,19.447,32.902,38.897,51.656,38.897 M1414.547,401.561c-16.453,19.448-32.904,38.897-51.658,38.897 M1414.541,401.564
	c16.451-19.449,32.902-38.898,51.656-38.898 M1517.807,401.564c-16.451-19.448-32.902-38.897-51.656-38.897 M1517.797,401.556
	c16.451,19.447,32.902,38.896,51.654,38.896 M1621.061,401.555c-16.451,19.448-32.902,38.896-51.654,38.896 M1621.057,401.558
	c16.451-19.449,32.902-38.897,51.656-38.897 M1724.322,401.559c-16.451-19.449-32.902-38.897-51.656-38.897"/>
<path id="path7558" fill="none" stroke="#CE5080" stroke-width="9.9386" d="M72.137,498.807
	c8.243,18.992,16.487,37.984,25.883,37.984 M123.88,498.807c-8.243,18.992-16.486,37.984-25.883,37.984 M123.879,498.809
	c8.243-18.992,16.486-37.984,25.883-37.984 M175.622,498.81c-8.244-18.993-16.486-37.985-25.884-37.985 M175.618,498.8
	c8.243,18.993,16.485,37.986,25.883,37.986 M227.361,498.8c-8.243,18.993-16.487,37.985-25.884,37.985 M227.359,498.804
	c8.244-18.993,16.486-37.986,25.884-37.986 M279.102,498.804c-8.243-18.993-16.486-37.985-25.883-37.985 M279.102,498.801
	c8.243,18.993,16.485,37.985,25.883,37.985 M330.845,498.8c-8.244,18.993-16.487,37.985-25.884,37.985 M330.843,498.804
	c8.243-18.993,16.487-37.985,25.884-37.985 M382.586,498.805c-8.242-18.993-16.485-37.986-25.883-37.986 M382.582,498.795
	c8.243,18.993,16.487,37.986,25.884,37.986 M434.325,498.795c-8.243,18.992-16.486,37.985-25.884,37.985 M434.323,498.798
	c8.243-18.992,16.487-37.985,25.883-37.985 M486.066,498.799c-8.243-18.993-16.486-37.986-25.883-37.986 M486.064,498.807
	c8.243,18.992,16.485,37.984,25.883,37.984 M537.807,498.807c-8.244,18.992-16.487,37.984-25.884,37.984 M537.805,498.809
	c8.243-18.992,16.487-37.984,25.884-37.984 M589.548,498.81c-8.243-18.993-16.485-37.985-25.883-37.985 M589.544,498.8
	c8.244,18.993,16.486,37.986,25.884,37.986 M641.288,498.8c-8.244,18.993-16.487,37.985-25.884,37.985 M641.286,498.804
	c8.243-18.993,16.486-37.986,25.883-37.986 M693.029,498.804c-8.242-18.993-16.487-37.985-25.883-37.985 M693.028,498.801
	c8.244,18.993,16.486,37.985,25.884,37.985 M744.771,498.8c-8.243,18.993-16.485,37.985-25.883,37.985 M744.77,498.804
	c8.243-18.993,16.486-37.985,25.884-37.985 M796.513,498.805c-8.243-18.993-16.486-37.986-25.883-37.986 M796.508,498.795
	c8.242,18.993,16.487,37.986,25.883,37.986 M848.251,498.795c-8.242,18.992-16.486,37.985-25.883,37.985 M848.25,498.798
	c8.244-18.992,16.487-37.985,25.884-37.985 M899.994,498.799c-8.244-18.993-16.486-37.986-25.884-37.986 M900.006,498.807
	c8.244,18.992,16.486,37.984,25.884,37.984 M951.75,498.807c-8.244,18.992-16.486,37.984-25.885,37.984 M951.748,498.809
	c8.242-18.992,16.486-37.984,25.883-37.984 M1003.49,498.81c-8.242-18.993-16.486-37.985-25.883-37.985 M1003.486,498.8
	c8.244,18.993,16.486,37.986,25.883,37.986 M1055.23,498.8c-8.244,18.993-16.488,37.985-25.885,37.985 M1055.229,498.804
	c8.242-18.993,16.484-37.986,25.883-37.986 M1106.971,498.804c-8.242-18.993-16.484-37.985-25.883-37.985 M1106.971,498.801
	c8.242,18.993,16.486,37.985,25.883,37.985 M1158.713,498.8c-8.242,18.993-16.486,37.985-25.883,37.985 M1158.713,498.804
	c8.242-18.993,16.486-37.985,25.883-37.985 M1210.455,498.805c-8.244-18.993-16.486-37.986-25.883-37.986 M1210.451,498.795
	c8.242,18.993,16.484,37.986,25.883,37.986 M1262.193,498.795c-8.242,18.992-16.484,37.985-25.883,37.985 M1262.191,498.798
	c8.244-18.992,16.488-37.985,25.885-37.985 M1313.936,498.799c-8.242-18.993-16.486-37.986-25.883-37.986 M1313.934,498.807
	c8.242,18.992,16.484,37.984,25.883,37.984 M1365.676,498.807c-8.242,18.992-16.486,37.984-25.883,37.984 M1365.674,498.809
	c8.244-18.992,16.486-37.984,25.885-37.984 M1417.418,498.81c-8.242-18.993-16.486-37.985-25.883-37.985 M1417.412,498.8
	c8.244,18.993,16.488,37.986,25.885,37.986 M1469.156,498.8c-8.242,18.993-16.486,37.985-25.883,37.985 M1469.156,498.804
	c8.242-18.993,16.484-37.986,25.881-37.986 M1520.898,498.804c-8.244-18.993-16.486-37.985-25.885-37.985 M1520.896,498.801
	c8.244,18.993,16.486,37.985,25.885,37.985 M1572.641,498.8c-8.244,18.993-16.486,37.985-25.885,37.985 M1572.639,498.804
	c8.242-18.993,16.486-37.985,25.885-37.985 M1624.383,498.805c-8.244-18.993-16.486-37.986-25.885-37.986 M1624.377,498.795
	c8.244,18.993,16.486,37.986,25.883,37.986 M1676.121,498.795c-8.244,18.992-16.486,37.985-25.883,37.985 M1676.119,498.798
	c8.242-18.992,16.486-37.985,25.885-37.985 M1727.863,498.799c-8.244-18.993-16.486-37.986-25.885-37.986"/>
</svg>
