<?xml version="1.0" encoding="utf-8"?>
<!-- Generator: Adobe Illustrator 16.0.0, SVG Export Plug-In . SVG Version: 6.00 Build 0)  -->
<!DOCTYPE svg PUBLIC "-//W3C//DTD SVG 1.1//EN" "http://www.w3.org/Graphics/SVG/1.1/DTD/svg11.dtd">
<svg version="1.1" id="Layer_1" xmlns="http://www.w3.org/2000/svg" xmlns:xlink="http://www.w3.org/1999/xlink" x="0px" y="0px"
	 width="100px" height="71.229px" viewBox="0 4.5 100 71.229" enable-background="new 0 4.5 100 71.229" xml:space="preserve">
<g>
	<polygon fill="#FFFFFF" points="51.223,60.69 45.229,41.135 38.554,55.619 32.987,38.518 31.085,47.189 15.77,47.189 15.77,44.798 
		27.637,44.798 32.987,26.924 38.554,47.97 45.229,30.543 51.223,49.643 52.258,44.798 68.738,44.798 68.738,47.189 56.202,47.189 	
		"/>
	<g>
		<path fill="#FFFFFF" d="M88.254,73.337c0,1.314-1.077,2.392-2.393,2.392H2.393C1.077,75.729,0,74.652,0,73.337V14.281
			c0-1.316,1.077-2.393,2.393-2.393h49.991c1.315,0,2.394,1.076,2.394,2.393v2.393c0,1.315-1.077,2.392-2.394,2.392H9.569
			c-1.315,0-2.393,1.076-2.393,2.394V66.16c0,1.313,1.077,2.392,2.393,2.392h69.116c1.314,0,2.393-1.077,2.393-2.392V49.676
			c0-1.312,1.077-2.393,2.393-2.393h2.393c1.314,0,2.393,1.079,2.393,2.393v23.661H88.254z"/>
	</g>
	<g>
		<path fill="#FFFFFF" d="M99.292,20.686c0.956-0.901,0.942-2.363-0.037-3.244L86.657,6.074c-0.978-0.885-1.81-1.573-1.852-1.534
			c-0.04,0.039-0.12,0.021-0.183-0.036c-0.057-0.06-0.923,0.596-1.92,1.449L69.369,17.41c-0.998,0.855-1.053,2.32-0.124,3.249
			l1.69,1.69c0.931,0.932,2.453,0.932,3.384,0l5.064-5.063c0.931-0.932,1.691-0.615,1.691,0.701v23.711
			c0,1.314,1.076,2.393,2.392,2.393h2.394c1.314,0,2.393-1.077,2.393-2.393V17.988c0-1.316,0.722-1.594,1.603-0.618l4.354,4.822
			c0.878,0.978,2.385,1.036,3.341,0.135L99.292,20.686z"/>
	</g>
</g>
</svg>
