<?xml version="1.0" encoding="utf-8"?>
<!-- Generator: Adobe Illustrator 16.0.0, SVG Export Plug-In . SVG Version: 6.00 Build 0)  -->
<!DOCTYPE svg PUBLIC "-//W3C//DTD SVG 1.1//EN" "http://www.w3.org/Graphics/SVG/1.1/DTD/svg11.dtd">
<svg version="1.1" id="Layer_1" xmlns="http://www.w3.org/2000/svg" xmlns:xlink="http://www.w3.org/1999/xlink" x="0px" y="0px"
	 width="337.191px" height="69.447px" viewBox="0 117.181 337.191 69.447" enable-background="new 0 117.181 337.191 69.447"
	 xml:space="preserve">
<path fill="#FF7000" d="M337.004,140.364c-8.014,0-14.988,7.702-21.734,15.15v-0.001c-6.748,7.449-13.119,14.484-20.405,14.491
	c-7.287-0.007-13.659-7.04-20.405-14.487l0-0.001c-6.742-7.442-13.71-15.139-21.714-15.15l0,0c-8.011,0-14.987,7.701-21.734,15.149
	l0.155,0.378l-0.155-0.377c0,0,0,0-0.001,0.001c-6.746,7.448-13.118,14.483-20.405,14.489c-7.288-0.006-13.66-7.042-20.407-14.49h0
	c-6.673-7.368-13.572-14.979-21.474-15.142v-0.004c-0.061-0.002-0.124-0.007-0.187-0.007c-8.012,0-14.988,7.702-21.734,15.15v-0.001
	c-6.748,7.449-13.119,14.484-20.406,14.491c-7.287-0.007-13.659-7.04-20.405-14.487l0-0.001c-6.742-7.442-13.71-15.139-21.714-15.15
	l0,0c-8.011,0-14.987,7.701-21.734,15.149l0.155,0.378l-0.155-0.377c0,0,0,0-0.001,0.001c-6.746,7.448-13.118,14.483-20.405,14.489
	c-7.288-0.006-13.66-7.042-20.407-14.49h0c-6.746-7.448-13.723-15.15-21.733-15.15v3.877c7.291,0,13.666,7.04,20.416,14.491l0,0
	c6.741,7.441,13.71,15.139,21.714,15.149c0.007,0,0.013,0,0.02,0c8.004-0.011,14.974-7.708,21.715-15.15l-0.124-0.302l0.124,0.301
	c6.744-7.444,13.113-14.478,20.396-14.489l0,0c7.289,0,13.665,7.037,20.413,14.488h0c6.741,7.442,13.711,15.139,21.715,15.15
	c0.006,0,0.013,0,0.02,0c8.003-0.012,14.973-7.708,21.714-15.149c6.728-7.428,13.084-14.443,20.345-14.49v0.001
	c7.291,0,13.666,7.04,20.416,14.491l0,0c6.741,7.441,13.71,15.139,21.714,15.149c0.007,0,0.013,0,0.02,0
	c8.004-0.011,14.974-7.708,21.715-15.15l-0.124-0.302l0.124,0.301c6.744-7.444,13.113-14.478,20.396-14.489l0,0
	c7.289,0,13.665,7.037,20.413,14.488h0c6.741,7.442,13.711,15.139,21.715,15.15c0.006,0,0.013,0,0.02,0
	c8.002-0.012,14.973-7.708,21.713-15.149c6.742-7.446,13.113-14.479,20.394-14.492v0.001c0.07,0,0.141,0.005,0.209,0.007v-3.877
	C337.129,140.368,337.066,140.364,337.004,140.364z"/>
</svg>
