<?xml version="1.0" encoding="utf-8"?>
<!-- Generator: Adobe Illustrator 16.0.0, SVG Export Plug-In . SVG Version: 6.00 Build 0)  -->
<!DOCTYPE svg PUBLIC "-//W3C//DTD SVG 1.1//EN" "http://www.w3.org/Graphics/SVG/1.1/DTD/svg11.dtd">
<svg version="1.1" id="Layer_1" xmlns="http://www.w3.org/2000/svg" xmlns:xlink="http://www.w3.org/1999/xlink" x="0px" y="0px"
	 width="319.58px" height="69.447px" viewBox="0 117.181 319.58 69.447" enable-background="new 0 117.181 319.58 69.447"
	 xml:space="preserve">
<path display="none" fill="#FF7000" d="M538.861,321.218c-19.767,0-36.977,19-53.618,37.376v-0.001
	c-16.646,18.376-32.363,35.731-50.342,35.748c-17.978-0.017-33.696-17.368-50.339-35.74l0.002-0.002
	c-16.632-18.36-33.824-37.347-53.568-37.375v-0.001c-19.764,0-36.973,19-53.617,37.374l0.381,0.933l-0.382-0.931
	c-0.001,0-0.001,0.001-0.003,0.003c-16.643,18.374-32.362,35.729-50.339,35.745c-17.979-0.017-33.699-17.373-50.343-35.748h-0.001
	c-16.462-18.176-33.482-36.95-52.975-37.355v-0.01c-0.15-0.004-0.305-0.016-0.46-0.016c-19.767,0-36.977,19-53.618,37.376v-0.001
	c-16.646,18.376-32.363,35.731-50.342,35.748c-17.978-0.017-33.696-17.368-50.339-35.74l0.002-0.002
	c-16.632-18.36-33.824-37.347-53.568-37.375v-0.001c-19.764,0-36.973,19-53.617,37.374l0.381,0.933l-0.382-0.931
	c-0.001,0-0.001,0.001-0.003,0.003c-16.643,18.374-32.362,35.729-50.339,35.745c-17.979-0.017-33.699-17.373-50.343-35.748h-0.001
	c-16.643-18.375-33.854-37.375-53.617-37.375v9.564c17.987,0,33.715,17.365,50.367,35.749v-0.001
	c16.629,18.36,33.824,37.348,53.569,37.376c0.017,0,0.031,0,0.048,0c19.746-0.028,36.941-19.017,53.571-37.378l-0.305-0.743
	l0.305,0.742c16.636-18.367,32.35-35.716,50.316-35.746v0.001c17.982,0,33.711,17.36,50.357,35.741l-0.001,0.002
	c16.63,18.359,33.825,37.345,53.57,37.375c0.017,0,0.032,0,0.049,0c19.744-0.03,36.938-19.015,53.567-37.374
	c16.597-18.324,32.279-35.633,50.19-35.747v0.003c17.987,0,33.715,17.365,50.367,35.749v-0.001
	c16.629,18.36,33.824,37.348,53.569,37.376c0.017,0,0.031,0,0.048,0c19.746-0.028,36.941-19.017,53.571-37.378l-0.305-0.743
	l0.305,0.742c16.636-18.367,32.35-35.716,50.316-35.746v0.001c17.982,0,33.711,17.36,50.357,35.741l-0.001,0.002
	c16.63,18.359,33.825,37.345,53.57,37.375c0.017,0,0.032,0,0.049,0c19.744-0.03,36.938-19.015,53.567-37.374
	c16.637-18.368,32.353-35.719,50.317-35.751v0.001c0.174,0,0.344,0.013,0.515,0.018v-9.566
	C539.171,321.229,539.017,321.218,538.861,321.218z"/>
<path fill="#FFFFFF" stroke="#000000" stroke-width="1.7411" stroke-miterlimit="10" d="M247.021,185.051"/>
<path display="none" fill="#FF7000" d="M538.861,152.058c-19.767,0-36.977,19-53.618,37.376v-0.001
	c-16.646,18.376-32.363,35.731-50.342,35.748c-17.978-0.017-33.696-17.368-50.339-35.74l0.002-0.002
	c-16.632-18.36-33.824-37.347-53.568-37.375v-0.001c-4.258,0-8.396,0.886-12.437,2.454c-0.023,0.008-0.043,0.014-0.067,0.022
	c-0.502,0.177-1.044,0.407-1.612,0.672c-6.973,3.048-13.657,8.08-20.156,14.073c-0.023,0.02-0.039,0.032-0.039,0.032l0.006-0.003
	c-6.592,6.083-12.994,13.147-19.313,20.124l0.381,0.933l-0.382-0.931c-0.001,0-0.001,0.001-0.003,0.003
	c-16.643,18.374-32.362,35.729-50.339,35.745c-17.979-0.017-33.699-17.373-50.343-35.748h-0.001
	c-16.643-18.375-33.854-37.375-53.617-37.375v9.564c17.987,0,33.715,17.365,50.367,35.749v-0.001
	c16.629,18.36,33.824,37.348,53.569,37.376c0.017,0,0.031,0,0.048,0c19.746-0.028,36.941-19.017,53.571-37.378l-0.305-0.743
	l0.305,0.742c16.636-18.367,32.35-35.716,50.316-35.746v0.001c17.982,0,33.711,17.36,50.357,35.741l-0.001,0.002
	c16.63,18.359,33.825,37.345,53.57,37.375c0.017,0,0.032,0,0.049,0c19.744-0.03,36.938-19.015,53.567-37.374
	c16.637-18.368,32.353-35.719,50.317-35.751v0.001c0.174,0,0.344,0.013,0.515,0.018v-9.566
	C539.171,152.07,539.017,152.058,538.861,152.058z"/>
<path fill="#FFFFFF" d="M315.872,142.667c0,0,6.317,22.367,0.079,26.728c0,0-1.29,0.46-2.667,0.542l-56.78,13.992
	c0,0-1.271,2.133-3.267,1.052c0,0-8.378-3.582-13.1-22.322c0,0-4.831-25.854,1.519-27.568c0.368-0.101,1.501,0.257,1.501,0.257
	l56.631-15.826c0,0,0.924-0.878,2.613-0.993C302.403,118.53,309.54,119.88,315.872,142.667z"/>
<path fill="#6FA17D" d="M254.356,186.629c-0.576,0-1.152-0.15-1.71-0.445c-0.888-0.412-9.14-4.684-13.805-23.197l-0.018-0.081
	c-0.05-0.267-1.228-6.621-1.642-13.304c-0.611-9.855,0.702-14.877,4.128-15.802c0.159-0.043,0.327-0.064,0.516-0.064
	c0.424,0,0.962,0.12,1.341,0.221l56-15.65c0.494-0.367,1.566-1.006,3.147-1.113l0.171-0.012l0.168,0.034
	c0.814,0.154,8.138,2.167,14.511,25.096c0.063,0.227,1.613,5.75,2.417,11.914c1.148,8.801,0.213,14.123-2.86,16.27l-0.146,0.102
	l-0.168,0.06c-0.058,0.021-1.412,0.502-2.913,0.611l-56.193,13.848C256.799,185.716,255.807,186.629,254.356,186.629z
	 M241.447,162.372c4.51,17.857,12.241,21.345,12.317,21.378l0.113,0.055c0.176,0.097,0.337,0.145,0.48,0.145
	c0.455,0,0.889-0.53,1.006-0.716l0.287-0.46l0.535-0.143l56.898-14.023l0.125-0.007c0.887-0.052,1.757-0.297,2.12-0.41
	c3.779-3.02,1.57-16.968-0.744-25.16c-5.417-19.493-11.336-22.727-12.33-23.143c-0.993,0.129-1.533,0.598-1.557,0.62l-0.23,0.203
	l-0.316,0.101l-57.012,15.933l-0.379-0.119c-0.299-0.093-0.671-0.181-0.86-0.206C239.505,137.352,238.658,147.401,241.447,162.372z"
	/>
<path fill="#7D988C" d="M312.819,168.699c0,0-7.733-4.154-12.148-22.963c0,0-6.591-19.19-1.417-24.717l-27.367,7.643
	c0,0-3.155,8.134,1.44,25.151c4.598,17.01,9.627,21.127,11.998,21.683L312.819,168.699z"/>
<path fill="#FFFFFF" d="M8.863,142.667c0,0-6.317,22.367-0.08,26.728c0,0,1.291,0.46,2.667,0.542L68.23,183.93
	c0,0,1.271,2.133,3.268,1.052c0,0,8.377-3.582,13.1-22.322c0,0,4.83-25.854-1.519-27.568c-0.368-0.101-1.502,0.257-1.502,0.257
	l-56.631-15.826c0,0-0.922-0.878-2.612-0.993C22.333,118.53,15.197,119.88,8.863,142.667z"/>
<path fill="#6FA17D" d="M70.38,186.629L70.38,186.629c-1.451,0-2.444-0.913-2.94-1.514l-56.194-13.849
	c-1.502-0.108-2.855-0.589-2.914-0.61l-0.169-0.06l-0.147-0.102c-3.07-2.146-4.006-7.468-2.858-16.27
	c0.803-6.163,2.352-11.687,2.417-11.92c6.371-22.922,13.695-24.935,14.509-25.09l0.169-0.033l0.171,0.012
	c1.582,0.106,2.654,0.747,3.147,1.113l56,15.65c0.379-0.102,0.917-0.221,1.341-0.221c0.188,0,0.357,0.021,0.516,0.063
	c3.427,0.925,4.738,5.946,4.127,15.802c-0.414,6.683-1.591,13.037-1.641,13.304l-0.018,0.081
	c-4.666,18.512-12.918,22.786-13.806,23.197C71.531,186.478,70.956,186.629,70.38,186.629z M9.408,168.191
	c0.361,0.113,1.233,0.359,2.121,0.411l0.243,0.036l57.323,14.127l0.287,0.48c0.109,0.174,0.544,0.704,0.999,0.704l0,0
	c0.141,0,0.302-0.049,0.479-0.145l0.112-0.055c0.067-0.031,7.854-3.706,12.317-21.377c2.79-14.974,1.941-25.023-0.452-25.953
	c-0.2,0.026-0.594,0.123-0.859,0.207l-0.378,0.119l-57.335-16.022l-0.241-0.23c-0.008-0.007-0.552-0.479-1.554-0.606
	c-0.889,0.369-6.857,3.501-12.314,23.139C7.84,151.224,5.633,165.176,9.408,168.191z"/>
<path fill="#7D988C" d="M11.138,168.585c0,0,8.289-4.077,12.82-22.419c0,0,5.624-19.932,0.494-25.433l28.246,7.921
	c0,0,3.209,9.315-1.49,25.899c-4.701,16.575-9.144,20.617-11.516,21.121L11.138,168.585z"/>
<path fill="none" stroke="#7DB48C" stroke-width="0.5357" stroke-miterlimit="10" d="M79.331,140.151
	c0,0,2.936,18.225-10.885,40.607"/>
<path fill="none" stroke="#7DB48C" stroke-width="0.5357" stroke-miterlimit="10" d="M73.414,138.576
	c0,0,2.935,18.224-10.886,40.608"/>
<path fill="none" stroke="#7DB48C" stroke-width="0.5357" stroke-miterlimit="10" d="M66.447,136.82c0,0,2.936,18.225-10.885,40.607
	"/>
<path fill="none" stroke="#7DB48C" stroke-width="0.5357" stroke-miterlimit="10" d="M59.809,133.617
	c0,0,2.935,18.224-10.886,40.607"/>
<path fill="none" stroke="#7DB48C" stroke-width="0.5357" stroke-miterlimit="10" d="M244.37,140.087
	c0,0-2.935,18.225,10.886,40.608"/>
<path fill="none" stroke="#7DB48C" stroke-width="0.5357" stroke-miterlimit="10" d="M250.288,138.513
	c0,0-2.936,18.224,10.886,40.606"/>
<path fill="none" stroke="#7DB48C" stroke-width="0.5357" stroke-miterlimit="10" d="M257.254,136.756
	c0,0-2.936,18.225,10.885,40.608"/>
<path fill="none" stroke="#7DB48C" stroke-width="0.5357" stroke-miterlimit="10" d="M263.892,133.553
	c0,0-2.935,18.225,10.886,40.607"/>
</svg>
