<?xml version="1.0" encoding="utf-8"?>
<!-- Generator: Adobe Illustrator 16.0.0, SVG Export Plug-In . SVG Version: 6.00 Build 0)  -->
<!DOCTYPE svg PUBLIC "-//W3C//DTD SVG 1.1//EN" "http://www.w3.org/Graphics/SVG/1.1/DTD/svg11.dtd">
<svg version="1.1" id="Layer_1" xmlns="http://www.w3.org/2000/svg" xmlns:xlink="http://www.w3.org/1999/xlink" x="0px" y="0px"
	 width="662.4px" height="374.4px" viewBox="0 0 662.4 374.4" enable-background="new 0 0 662.4 374.4" xml:space="preserve">
<g>
	<g>
		
			<linearGradient id="SVGID_1_" gradientUnits="userSpaceOnUse" x1="271.8032" y1="-78.1858" x2="226.8054" y2="32.8077" gradientTransform="matrix(1 0 0 -1 54 339.3999)">
			<stop  offset="0" style="stop-color:#73AF8C"/>
			<stop  offset="0.6224" style="stop-color:#76B18C"/>
			<stop  offset="1" style="stop-color:#7DB48C"/>
		</linearGradient>
		<path fill="url(#SVGID_1_)" d="M316.348,313.353c-2.52,8.297-3.666,14.33-3.442,18.106c0.222,3.777,1.222,5.814,2.999,6.11
			c2.812,0.593,5.627-1,8.442-4.777c2.812-3.776,5.479-8.403,7.998-13.887h4.666c-2.521,6.371-5.109,11.592-7.775,15.664
			c-2.666,4.076-5.409,7.297-8.222,9.665c-2.814,2.371-5.631,3.999-8.442,4.888c-2.815,0.89-5.632,1.333-8.443,1.333
			c-2.666,0-5.298-0.556-7.887-1.666c-2.593-1.11-4.631-3.146-6.11-6.109c-1.482-2.961-2.222-7.033-2.222-12.221
			c0-5.183,1.257-11.921,3.777-20.219l7.554-25.771l-36.882,20.219c-2.965,8.741-6.221,16.996-9.776,24.771
			c-3.555,7.776-7.554,14.593-11.998,20.44c-4.443,5.85-9.442,10.516-14.997,13.998c-5.554,3.479-11.887,5.221-18.996,5.221
			c-3.854,0-7.554-0.521-11.109-1.555c-3.555-1.038-6.554-2.704-8.998-4.999c-2.444-2.299-4.11-5.26-4.999-8.888
			c-0.889-3.632-0.667-8.109,0.667-13.441c0.889-3.556,2.628-6.332,5.221-8.332c2.59-2,5.443-3.333,8.554-3.999
			c3.111-0.667,6.183-0.701,9.221-0.111c3.034,0.595,5.555,1.742,7.554,3.443c2,1.705,3.11,3.927,3.333,6.666
			c0.222,2.742-0.927,5.888-3.444,9.442c-1.927-1.629-3.742-2.444-5.443-2.444c-1.705,0-3.187,0.482-4.443,1.444
			c-1.26,0.966-2.222,2.222-2.889,3.776c-0.667,1.556-0.816,3.072-0.444,4.555c0.368,1.479,1.222,2.777,2.555,3.89
			c1.333,1.109,3.406,1.666,6.221,1.666c3.85,0,7.332-2.111,10.442-6.332c3.11-4.223,5.999-9.85,8.665-16.886
			c2.666-7.033,5.256-15.108,7.776-24.219c2.517-9.108,5.183-18.44,7.999-27.995c2.812-9.554,5.776-19.03,8.887-28.438
			c3.11-9.404,6.666-17.996,10.665-25.772c4-7.775,8.516-14.293,13.553-19.552c5.034-5.256,10.737-8.627,17.108-10.108
			c-3.704-1.629-7.999-2.739-12.887-3.333c-4.888-0.591-9.925-0.89-15.108-0.89c-9.63,0-18.219,1.667-25.773,4.999
			c-7.554,3.333-14.146,7.665-19.774,12.998c-5.631,5.332-10.297,11.442-13.998,18.33c-3.704,6.888-6.592,13.962-8.665,21.218
			c-2.076,7.26-3.298,14.331-3.666,21.22c-0.371,6.888,0.035,12.997,1.222,18.328c1.184,5.333,3.072,9.665,5.666,12.998
			c2.59,3.333,5.888,4.999,9.887,4.999c2.368,0,4.294-0.851,5.777-2.555c1.479-1.701,2.184-3.59,2.11-5.666
			c-0.076-2.072-1.111-3.961-3.11-5.666c-2-1.7-5.298-2.555-9.887-2.555c0-3.999,1.556-7.146,4.666-9.442
			c3.11-2.295,6.516-3.479,10.22-3.555c3.701-0.073,7.11,1.076,10.22,3.443c3.111,2.37,4.666,6.221,4.666,11.554
			c0,3.555-0.778,6.775-2.333,9.664s-3.666,5.371-6.332,7.442c-2.666,2.076-5.704,3.704-9.109,4.889
			c-3.409,1.188-6.888,1.777-10.442,1.777c-8.742,0-15.962-1.889-21.663-5.666c-5.704-3.776-9.925-8.775-12.664-14.997
			c-2.743-6.222-4.076-13.33-3.999-21.328c0.073-7.999,1.479-16.108,4.221-24.329c2.739-8.222,6.776-16.33,12.109-24.329
			c5.333-7.998,11.921-15.108,19.774-21.329c7.849-6.221,16.848-11.22,26.995-14.997c10.144-3.777,21.44-5.666,33.882-5.666
			c8.443,0,16.403,1.038,23.885,3.11c7.478,2.075,13.81,5.333,18.996,9.775c0,0.149-0.076,0.224-0.222,0.224h-0.444
			c-4.742,0.741-8.963,3.964-12.664,9.664c-3.704,5.703-7.11,12.853-10.22,21.439c-3.111,8.593-6.148,18.219-9.109,28.884
			c-2.965,10.665-6.148,21.406-9.554,32.217l36.438-19.996l24.439-82.873h25.773c-5.927,19.996-11.332,38.438-16.22,55.322
			c-2.075,7.109-4.188,14.259-6.333,21.44c-2.147,7.186-4.109,13.812-5.888,19.885c-1.777,6.075-3.371,11.407-4.777,15.997
			C317.938,308.169,316.938,311.429,316.348,313.353z"/>
		
			<linearGradient id="SVGID_2_" gradientUnits="userSpaceOnUse" x1="342.9688" y1="-49.3352" x2="297.9702" y2="61.66" gradientTransform="matrix(1 0 0 -1 54 339.3999)">
			<stop  offset="0" style="stop-color:#73AF8C"/>
			<stop  offset="0.6224" style="stop-color:#76B18C"/>
			<stop  offset="1" style="stop-color:#7DB48C"/>
		</linearGradient>
		<path fill="url(#SVGID_2_)" d="M379.225,265.361c4.889,0,8.517,1.409,10.888,4.222c2.366,2.815,3.59,6.259,3.666,10.331
			c0.072,4.075-0.854,8.48-2.777,13.22c-1.927,4.742-4.704,9.036-8.331,12.888c-3.632,3.854-7.999,6.926-13.109,9.22
			c-5.108,2.299-10.774,3.076-16.995,2.333c-0.445,5.631,0,10.37,1.331,14.22c1.335,3.854,4.072,5.777,8.222,5.777
			c4.889,0,9.516-1.518,13.887-4.555c4.367-3.034,8.256-6.479,11.664-10.332c3.851-4.443,7.405-9.479,10.665-15.108h3.555
			c-3.555,7.854-7.775,14.74-12.664,20.663c-2.075,2.666-4.369,5.222-6.888,7.665c-2.521,2.444-5.26,4.631-8.221,6.555
			c-2.965,1.928-6.148,3.481-9.555,4.666c-3.408,1.188-6.964,1.777-10.665,1.777c-6.963,0-12.329-2.073-16.106-6.222
			c-3.777-4.146-6.076-9.293-6.888-15.441c-0.815-6.146-0.333-12.848,1.443-20.107c1.777-7.255,4.776-13.959,8.998-20.106
			c4.222-6.146,9.517-11.293,15.886-15.441C363.596,267.438,370.927,265.361,379.225,265.361z M374.559,271.582
			c-1.927,0-3.964,1.188-6.109,3.556c-2.148,2.37-4.187,5.408-6.109,9.108c-1.927,3.704-3.666,7.854-5.221,12.442
			c-1.557,4.593-2.777,9.108-3.666,13.553c2.516,0.889,4.998,0.556,7.441-0.999c2.444-1.556,4.7-3.777,6.776-6.666
			c2.072-2.888,3.889-6.109,5.443-9.665c1.556-3.555,2.666-6.922,3.333-10.107c0.667-3.185,0.889-5.851,0.667-7.999
			C376.892,272.658,376.038,271.582,374.559,271.582z"/>
		
			<linearGradient id="SVGID_3_" gradientUnits="userSpaceOnUse" x1="390.9268" y1="-29.8909" x2="345.9293" y2="81.1016" gradientTransform="matrix(1 0 0 -1 54 339.3999)">
			<stop  offset="0" style="stop-color:#73AF8C"/>
			<stop  offset="0.6224" style="stop-color:#76B18C"/>
			<stop  offset="1" style="stop-color:#7DB48C"/>
		</linearGradient>
		<path fill="url(#SVGID_3_)" d="M429.436,265.361l-3.109,9.998l19.106-12.664c-0.889,5.332-0.927,9.441-0.11,12.331
			c0.812,2.888,2.109,4.964,3.888,6.221c1.777,1.26,3.851,1.777,6.222,1.556c2.367-0.223,4.666-0.851,6.889-1.889
			c-4.742,5.631-9.332,9.813-13.775,12.553c-4.443,2.743-8.408,4.223-11.887,4.443c-3.482,0.223-6.37-0.812-8.665-3.11
			c-2.298-2.295-3.742-5.812-4.333-10.554l-19.552,65.767h-20.22l25.329-84.65L429.436,265.361L429.436,265.361z"/>
		
			<linearGradient id="SVGID_4_" gradientUnits="userSpaceOnUse" x1="436.4678" y1="-11.4294" x2="391.4702" y2="99.5636" gradientTransform="matrix(1 0 0 -1 54 339.3999)">
			<stop  offset="0" style="stop-color:#73AF8C"/>
			<stop  offset="0.6224" style="stop-color:#76B18C"/>
			<stop  offset="1" style="stop-color:#7DB48C"/>
		</linearGradient>
		<path fill="url(#SVGID_4_)" d="M488.091,265.361c4.888,0,8.517,1.409,10.888,4.222c2.366,2.815,3.59,6.259,3.665,10.331
			c0.073,4.075-0.854,8.48-2.776,13.22c-1.928,4.742-4.704,9.036-8.332,12.888c-3.631,3.854-7.998,6.926-13.108,9.22
			c-5.109,2.299-10.774,3.076-16.997,2.333c-0.443,5.631,0,10.37,1.333,14.22c1.333,3.854,4.072,5.777,8.222,5.777
			c4.889,0,9.516-1.518,13.887-4.555c4.367-3.034,8.255-6.479,11.664-10.332c3.851-4.443,7.404-9.479,10.665-15.108h3.555
			c-3.555,7.854-7.776,14.74-12.664,20.663c-2.076,2.666-4.371,5.222-6.888,7.665c-2.521,2.444-5.26,4.631-8.221,6.555
			c-2.966,1.928-6.148,3.481-9.555,4.666c-3.409,1.188-6.964,1.777-10.665,1.777c-6.964,0-12.331-2.073-16.106-6.222
			c-3.777-4.146-6.075-9.293-6.889-15.441c-0.815-6.146-0.333-12.848,1.444-20.107c1.777-7.255,4.776-13.959,8.998-20.106
			c4.222-6.146,9.516-11.293,15.886-15.441C472.462,267.438,479.794,265.361,488.091,265.361z M483.425,271.582
			c-1.927,0-3.965,1.188-6.108,3.556c-2.149,2.37-4.188,5.408-6.11,9.108c-1.927,3.704-3.666,7.854-5.222,12.442
			c-1.556,4.593-2.777,9.108-3.666,13.553c2.518,0.889,4.999,0.556,7.442-0.999c2.444-1.556,4.7-3.777,6.776-6.666
			c2.072-2.888,3.889-6.109,5.443-9.665c1.556-3.555,2.666-6.922,3.332-10.107c0.668-3.185,0.89-5.851,0.668-7.999
			C485.758,272.658,484.904,271.582,483.425,271.582z"/>
	</g>
	<path fill="#FF7000" d="M538.861,152.058L538.861,152.058c-19.766,0-36.976,19-53.618,37.376v-0.001
		c-16.646,18.376-32.363,35.732-50.342,35.748c-17.977-0.016-33.696-17.368-50.339-35.74l0.002-0.002
		c-16.631-18.36-33.824-37.346-53.568-37.375v-0.001c-19.764,0-36.973,19-53.617,37.374l0.381,0.933l-0.382-0.931
		c-0.001,0-0.001,0.001-0.003,0.003l1.626,3.968l-1.626-3.968c-16.643,18.374-32.362,35.729-50.339,35.745
		c-17.979-0.016-33.699-17.373-50.343-35.748h-0.001c-16.643-18.375-33.854-37.375-53.617-37.375v9.565
		c17.987,0,33.715,17.365,50.367,35.749v-0.001c16.629,18.36,33.824,37.347,53.569,37.376c0.017,0,0.031,0,0.048,0
		c19.746-0.029,36.941-19.017,53.571-37.378l-0.305-0.743l0.305,0.742c16.636-18.367,32.349-35.716,50.316-35.746v0.001
		c17.983,0,33.711,17.36,50.358,35.741l-0.001,0.002c16.63,18.359,33.825,37.345,53.57,37.375c0.017,0,0.032,0,0.049,0
		c19.744-0.03,36.938-19.015,53.567-37.374c16.637-18.368,32.353-35.719,50.318-35.751v0.001c0.173,0,0.343,0.013,0.514,0.017
		v-9.566C539.171,152.07,539.017,152.058,538.861,152.058z"/>
	<path fill="#FFFFFF" stroke="#000000" stroke-width="3.2504" stroke-miterlimit="10" d="M521.38,213.784"/>
	<g>
		<path fill="#FFFFFF" d="M649.914,134.66c0,0,11.794,41.756,0.148,49.896c0,0-2.408,0.862-4.979,1.013l-105.999,26.123
			c0,0-2.373,3.983-6.099,1.963c0,0-15.639-6.687-24.455-41.673c0,0-9.018-48.266,2.836-51.465c0.687-0.187,2.804,0.479,2.804,0.479
			l105.722-29.545c0,0,1.724-1.64,4.877-1.854C624.769,89.598,638.092,92.119,649.914,134.66z"/>
		<path fill="#7DB48C" d="M535.072,216.728c-1.076,0-2.15-0.279-3.192-0.829c-1.657-0.768-17.063-8.747-25.772-43.306l-0.033-0.151
			c-0.094-0.498-2.292-12.36-3.064-24.837c-1.141-18.399,1.309-27.773,7.706-29.5c0.296-0.08,0.611-0.119,0.962-0.119
			c0.791,0,1.797,0.224,2.504,0.412l104.544-29.216c0.921-0.685,2.923-1.878,5.874-2.078l0.32-0.022l0.314,0.061
			c1.521,0.288,15.193,4.047,27.09,46.851c0.119,0.423,3.012,10.736,4.512,22.241c2.142,16.431,0.396,26.365-5.339,30.373
			l-0.274,0.191l-0.313,0.112c-0.109,0.039-2.637,0.937-5.44,1.14l-104.903,25.854C539.634,215.026,537.78,216.728,535.072,216.728z
			 M510.974,171.447c8.42,33.336,22.851,39.848,22.994,39.909l0.21,0.102c0.329,0.18,0.631,0.271,0.896,0.271
			c0.849,0,1.66-0.99,1.878-1.337l0.537-0.857l0.998-0.269l106.223-26.179l0.23-0.013c1.656-0.097,3.282-0.555,3.959-0.766
			c7.054-5.636,2.931-31.676-1.391-46.97c-10.111-36.39-21.162-42.429-23.017-43.204c-1.854,0.242-2.863,1.116-2.908,1.156
			l-0.43,0.38l-0.589,0.188L514.13,123.602l-0.707-0.222c-0.558-0.174-1.254-0.338-1.606-0.384
			C507.349,124.737,505.766,143.497,510.974,171.447z"/>
	</g>
	<path fill="#7D988C" d="M644.214,183.259c0,0-14.436-7.755-22.678-42.87c0,0-12.304-35.825-2.646-46.142l-51.089,14.267
		c0,0-5.892,15.186,2.688,46.955c8.582,31.755,17.972,39.44,22.398,40.479L644.214,183.259z"/>
	<g>
		<path fill="#FFFFFF" d="M12.486,134.66c0,0-11.794,41.756-0.149,49.896c0,0,2.409,0.862,4.98,1.013l105.999,26.123
			c0,0,2.373,3.983,6.099,1.963c0,0,15.638-6.687,24.455-41.673c0,0,9.017-48.266-2.836-51.465
			c-0.687-0.187-2.804,0.479-2.804,0.479L42.509,91.451c0,0-1.723-1.64-4.877-1.854C37.632,89.598,24.309,92.119,12.486,134.66z"/>
		<path fill="#7DB48C" d="M127.329,216.728C127.328,216.728,127.328,216.728,127.329,216.728c-2.709,0-4.562-1.701-5.49-2.824
			L16.933,188.05c-2.803-0.203-5.331-1.101-5.439-1.14l-0.315-0.112l-0.274-0.191c-5.733-4.008-7.479-13.942-5.338-30.373
			c1.499-11.505,4.392-21.818,4.515-22.252c11.892-42.793,25.566-46.552,27.086-46.84l0.315-0.061l0.319,0.022
			c2.953,0.199,4.954,1.395,5.875,2.078l104.544,29.216c0.707-0.188,1.713-0.412,2.503-0.412c0.351,0,0.666,0.039,0.963,0.119
			c6.397,1.727,8.846,11.101,7.706,29.5c-0.773,12.477-2.971,24.339-3.064,24.837l-0.033,0.151
			c-8.709,34.559-24.117,42.538-25.773,43.307C129.478,216.449,128.405,216.728,127.329,216.728z M13.503,182.309
			c0.673,0.21,2.3,0.669,3.959,0.766l0.453,0.068l107.014,26.372l0.535,0.897c0.204,0.324,1.015,1.314,1.864,1.314l0,0
			c0.264,0,0.564-0.092,0.894-0.271l0.209-0.102c0.125-0.058,14.662-6.919,22.995-39.909c5.209-27.953,3.625-46.715-0.844-48.45
			c-0.373,0.049-1.109,0.229-1.604,0.385l-0.707,0.223L41.236,93.691l-0.451-0.429c-0.015-0.014-1.031-0.894-2.9-1.131
			c-1.66,0.688-12.802,6.536-22.99,43.197C10.576,150.635,6.456,176.679,13.503,182.309z"/>
	</g>
	<path fill="#7D988C" d="M16.732,183.045c0,0,15.474-7.611,23.933-41.854c0,0,10.499-37.211,0.923-47.479l52.73,14.788
		c0,0,5.991,17.391-2.781,48.351c-8.776,30.943-17.07,38.489-21.499,39.429L16.732,183.045z"/>
	<g>
		
			<linearGradient id="SVGID_5_" gradientUnits="userSpaceOnUse" x1="479.5527" y1="-101.8567" x2="217.6986" y2="229.0689" gradientTransform="matrix(1 0 0 -1 54 339.3999)">
			<stop  offset="0" style="stop-color:#35939D"/>
			<stop  offset="0.1368" style="stop-color:#499A93"/>
			<stop  offset="0.226" style="stop-color:#58A08C"/>
			<stop  offset="0.9139" style="stop-color:#79B28C"/>
			<stop  offset="1" style="stop-color:#7DB48C"/>
		</linearGradient>
		<path fill="url(#SVGID_5_)" d="M305.348,130.146c-2.52,8.297-3.666,14.331-3.443,18.106c0.222,3.777,1.222,5.815,2.999,6.11
			c2.812,0.594,5.627-1,8.443-4.777c2.812-3.775,5.479-8.403,7.999-13.886h4.666c-2.521,6.37-5.109,11.592-7.775,15.664
			c-2.666,4.075-5.409,7.297-8.222,9.664c-2.814,2.371-5.631,4-8.443,4.889c-2.815,0.89-5.631,1.333-8.443,1.333
			c-2.666,0-5.298-0.556-7.887-1.667c-2.593-1.109-4.631-3.145-6.11-6.108c-1.482-2.963-2.222-7.033-2.222-12.221
			c0-5.184,1.257-11.922,3.777-20.219l7.554-25.773l-36.882,20.22c-2.965,8.741-6.221,16.997-9.776,24.772
			c-3.555,7.776-7.554,14.591-11.998,20.44c-4.443,5.85-9.442,10.516-14.997,13.997c-5.554,3.479-11.887,5.222-18.996,5.222
			c-3.854,0-7.554-0.521-11.109-1.556c-3.555-1.038-6.554-2.704-8.998-4.999c-2.444-2.298-4.11-5.259-4.999-8.887
			c-0.889-3.633-0.667-8.11,0.667-13.442c0.889-3.555,2.628-6.332,5.221-8.332c2.59-1.999,5.443-3.332,8.554-3.999
			c3.111-0.666,6.183-0.701,9.221-0.111c3.034,0.595,5.555,1.743,7.554,3.444c2,1.704,3.11,3.926,3.333,6.665
			c0.222,2.743-0.927,5.888-3.444,9.443c-1.927-1.63-3.742-2.444-5.443-2.444c-1.705,0-3.187,0.481-4.443,1.444
			c-1.26,0.965-2.222,2.222-2.889,3.776s-0.816,3.072-0.444,4.555c0.368,1.479,1.222,2.776,2.555,3.889
			c1.333,1.111,3.406,1.666,6.221,1.666c3.85,0,7.332-2.11,10.442-6.332c3.11-4.223,5.999-9.85,8.665-16.886
			c2.666-7.033,5.256-15.108,7.776-24.219c2.517-9.108,5.183-18.439,7.999-27.994c2.812-9.554,5.776-19.03,8.887-28.438
			c3.11-9.404,6.666-17.997,10.665-25.773c4-7.774,8.516-14.292,13.553-19.552c5.034-5.256,10.737-8.627,17.108-10.107
			c-3.704-1.63-7.999-2.739-12.887-3.333c-4.888-0.592-9.925-0.89-15.108-0.89c-9.63,0-18.219,1.666-25.773,4.999
			c-7.554,3.332-14.146,7.665-19.774,12.997c-5.631,5.333-10.297,11.442-13.998,18.33c-3.704,6.888-6.592,13.963-8.665,21.219
			c-2.076,7.26-3.298,14.33-3.666,21.219c-0.371,6.888,0.035,12.997,1.222,18.329c1.184,5.332,3.072,9.665,5.666,12.997
			c2.59,3.333,5.888,5,9.887,5c2.368,0,4.294-0.851,5.777-2.556c1.479-1.701,2.184-3.59,2.11-5.665
			c-0.076-2.073-1.111-3.962-3.11-5.666c-2-1.701-5.298-2.555-9.887-2.555c0-4,1.556-7.146,4.666-9.443
			c3.11-2.295,6.516-3.479,10.22-3.555c3.701-0.073,7.11,1.076,10.22,3.442c3.111,2.371,4.666,6.223,4.666,11.555
			c0,3.555-0.778,6.775-2.333,9.665c-1.555,2.889-3.666,5.37-6.332,7.442c-2.666,2.075-5.704,3.704-9.109,4.889
			c-3.409,1.188-6.888,1.776-10.442,1.776c-8.742,0-15.962-1.889-21.663-5.666c-5.704-3.775-9.925-8.774-12.664-14.997
			c-2.743-6.221-4.076-13.33-3.999-21.329c0.073-7.997,1.479-16.107,4.221-24.328c2.739-8.222,6.776-16.33,12.109-24.328
			c5.333-7.999,11.921-15.108,19.774-21.33c7.849-6.222,16.848-11.221,26.995-14.997c10.144-3.776,21.44-5.665,33.882-5.665
			c8.443,0,16.403,1.038,23.885,3.11c7.478,2.075,13.81,5.331,18.996,9.775c0,0.148-0.076,0.222-0.222,0.222h-0.444
			c-4.742,0.743-8.963,3.966-12.664,9.665c-3.704,5.704-7.11,12.853-10.22,21.44c-3.111,8.592-6.148,18.219-9.109,28.884
			c-2.965,10.664-6.148,21.405-9.554,32.216l36.438-19.996l24.44-82.873h25.773c-5.927,19.996-11.332,38.438-16.22,55.322
			c-2.075,7.11-4.187,14.258-6.333,21.44c-2.147,7.187-4.109,13.812-5.888,19.886c-1.777,6.075-3.371,11.407-4.777,15.997
			C306.938,124.964,305.938,128.224,305.348,130.146z"/>
		
			<linearGradient id="SVGID_6_" gradientUnits="userSpaceOnUse" x1="523.375" y1="-67.1956" x2="261.5121" y2="263.7412" gradientTransform="matrix(1 0 0 -1 54 339.3999)">
			<stop  offset="0" style="stop-color:#35939D"/>
			<stop  offset="0.1368" style="stop-color:#499A93"/>
			<stop  offset="0.226" style="stop-color:#58A08C"/>
			<stop  offset="0.9139" style="stop-color:#79B28C"/>
			<stop  offset="1" style="stop-color:#7DB48C"/>
		</linearGradient>
		<path fill="url(#SVGID_6_)" d="M368.225,82.155c4.889,0,8.517,1.41,10.888,4.222c2.366,2.815,3.59,6.261,3.666,10.331
			c0.072,4.076-0.854,8.481-2.777,13.22c-1.927,4.742-4.704,9.037-8.331,12.888c-3.632,3.854-7.999,6.926-13.109,9.221
			c-5.108,2.298-10.774,3.076-16.995,2.333c-0.445,5.631,0,10.369,1.331,14.22c1.335,3.854,4.072,5.776,8.222,5.776
			c4.889,0,9.516-1.517,13.887-4.555c4.367-3.034,8.256-6.479,11.664-10.331c3.851-4.444,7.405-9.479,10.665-15.108h3.555
			c-3.555,7.854-7.775,14.74-12.664,20.662c-2.075,2.667-4.369,5.222-6.888,7.666c-2.521,2.443-5.26,4.631-8.221,6.554
			c-2.965,1.928-6.148,3.482-9.555,4.666c-3.408,1.188-6.964,1.777-10.665,1.777c-6.963,0-12.33-2.072-16.107-6.221
			c-3.777-4.146-6.075-9.294-6.887-15.441c-0.816-6.145-0.333-12.849,1.443-20.107c1.777-7.256,4.777-13.959,8.999-20.106
			c4.222-6.146,9.517-11.293,15.886-15.441C352.596,84.231,359.927,82.155,368.225,82.155z M363.559,88.377
			c-1.927,0-3.964,1.188-6.109,3.556c-2.148,2.37-4.187,5.407-6.109,9.108c-1.927,3.704-3.666,7.854-5.221,12.442
			c-1.557,4.593-2.777,9.108-3.666,13.553c2.516,0.889,4.998,0.556,7.441-1c2.444-1.555,4.7-3.777,6.776-6.665
			c2.072-2.889,3.889-6.11,5.443-9.665c1.556-3.555,2.666-6.923,3.333-10.108c0.667-3.185,0.889-5.851,0.667-7.998
			C365.892,89.453,365.038,88.377,363.559,88.377z"/>
		
			<linearGradient id="SVGID_7_" gradientUnits="userSpaceOnUse" x1="562.6143" y1="-36.1458" x2="300.75" y2="294.7927" gradientTransform="matrix(1 0 0 -1 54 339.3999)">
			<stop  offset="0" style="stop-color:#35939D"/>
			<stop  offset="0.1368" style="stop-color:#499A93"/>
			<stop  offset="0.226" style="stop-color:#58A08C"/>
			<stop  offset="0.9139" style="stop-color:#79B28C"/>
			<stop  offset="1" style="stop-color:#7DB48C"/>
		</linearGradient>
		<path fill="url(#SVGID_7_)" d="M451.984,84.155c-2.371,7.853-4.594,15.258-6.665,22.218c-1.777,5.926-3.556,11.813-5.333,17.663
			c-1.777,5.854-3.11,10.259-3.999,13.221c-1.777,5.632-2.443,9.221-1.999,10.775c0.443,1.555,1.257,2.482,2.442,2.777
			c1.629,0.443,3.739-0.111,6.332-1.667c2.59-1.556,4.777-4.257,6.556-8.109h3.109c-1.776,4.593-3.854,8.481-6.221,11.665
			c-2.371,3.187-4.854,5.776-7.443,7.776c-2.593,1.999-5.109,3.442-7.554,4.332c-2.444,0.889-4.631,1.333-6.555,1.333
			c-2.666,0-5.188-0.777-7.555-2.333c-2.37-1.556-3.703-4.7-4-9.442c-3.109,3.26-6.74,6.037-10.887,8.332
			c-4.147,2.298-8.221,3.443-12.22,3.443c-2.815,0-5.188-0.924-7.109-2.777c-1.927-1.851-3.109-4.665-3.556-8.442
			c-0.443-3.776-0.034-8.554,1.223-14.331c1.257-5.775,3.59-12.515,6.998-20.218c3.406-7.85,7.776-14.554,13.109-20.106
			c5.332-5.556,10.998-9.889,16.996-12.998c5.999-3.11,11.998-4.961,17.997-5.556C441.653,81.121,447.097,81.934,451.984,84.155z
			 M413.77,144.588c0.444-2.222,1.111-4.665,2-7.331l13.108-43.771c-0.889-0.295-1.777-0.444-2.666-0.444
			c-2.371,0-4.814,1.372-7.332,4.11c-2.521,2.743-4.889,6.222-7.11,10.443c-2.222,4.221-4.26,8.74-6.108,13.553
			c-1.854,4.813-3.188,9.331-4,13.553c-0.815,4.222-1.037,7.703-0.666,10.442c0.368,2.742,1.517,4.109,3.443,4.109
			c1.479,0,3.11-0.556,4.889-1.666C411.104,146.477,412.582,145.477,413.77,144.588z"/>
		
			<linearGradient id="SVGID_8_" gradientUnits="userSpaceOnUse" x1="597.1787" y1="-8.7942" x2="335.3147" y2="322.144" gradientTransform="matrix(1 0 0 -1 54 339.3999)">
			<stop  offset="0" style="stop-color:#35939D"/>
			<stop  offset="0.1368" style="stop-color:#499A93"/>
			<stop  offset="0.226" style="stop-color:#58A08C"/>
			<stop  offset="0.9139" style="stop-color:#79B28C"/>
			<stop  offset="1" style="stop-color:#7DB48C"/>
		</linearGradient>
		<path fill="url(#SVGID_8_)" d="M486.645,82.155l-3.11,9.998l19.106-12.664c-0.889,5.332-0.927,9.442-0.11,12.331
			c0.812,2.889,2.109,4.965,3.888,6.221c1.777,1.261,3.852,1.778,6.222,1.557c2.367-0.223,4.666-0.852,6.889-1.89
			c-4.742,5.631-9.332,9.814-13.775,12.555c-4.442,2.741-8.408,4.221-11.887,4.442c-3.482,0.222-6.37-0.812-8.665-3.11
			c-2.298-2.295-3.742-5.812-4.333-10.554l-19.552,65.767h-20.219l25.328-84.651L486.645,82.155L486.645,82.155z"/>
	</g>
	
		<linearGradient id="SVGID_9_" gradientUnits="userSpaceOnUse" x1="215.2417" y1="145.8289" x2="234.8271" y2="145.8289" gradientTransform="matrix(1 0 0 -1 54 339.3999)">
		<stop  offset="0.0291" style="stop-color:#7CB38C"/>
		<stop  offset="1" style="stop-color:#7DB48C"/>
	</linearGradient>
	<path fill="url(#SVGID_9_)" d="M288.804,191.507c0,0-4.042-1.389-12.779-2.428c-8.905-1.059-6.482,7.697-6.482,7.697
		s7.554,0.069,13.752,1.252C289.493,199.211,288.804,191.507,288.804,191.507z"/>
	<path fill="#FF7000" d="M296.686,169.316c0,0,14.626-12.241,21.806-14.777s1.023,4.396,1.023,4.396L296.686,169.316z"/>
</g>
</svg>
