<?xml version="1.0" encoding="utf-8"?>
<!-- Generator: Adobe Illustrator 16.0.0, SVG Export Plug-In . SVG Version: 6.00 Build 0)  -->
<!DOCTYPE svg PUBLIC "-//W3C//DTD SVG 1.1//EN" "http://www.w3.org/Graphics/SVG/1.1/DTD/svg11.dtd">
<svg version="1.1" id="Layer_1" xmlns="http://www.w3.org/2000/svg" xmlns:xlink="http://www.w3.org/1999/xlink" x="0px" y="0px"
	 width="100px" height="100px" viewBox="0 0 100 100" enable-background="new 0 0 100 100" xml:space="preserve">
<g id="Captions">
</g>
<g id="Your_Icon">
	<path fill="#FFFFFF" d="M71.944,76.131l-17.022-0.003l-12.394-0.509V48.384h8v19.558l4.641,0.188h16.775
		C81.35,68.131,89,60.48,89,51.075s-7.65-17.056-17.056-17.056c-3.173,0-6.27,0.879-8.957,2.541l-4.156,2.571l-1.698-4.583
		c-3.604-9.729-13-16.268-23.38-16.268c-13.743,0-24.925,11.182-24.925,24.926c0,13.743,11.182,24.925,24.925,24.925v8
		c-18.155,0-32.925-14.77-32.925-32.925S15.598,10.28,33.753,10.28c12.222,0,23.41,6.862,29.068,17.457
		c2.892-1.131,5.982-1.718,9.123-1.718C85.76,26.019,97,37.259,97,51.075C97,64.891,85.76,76.131,71.944,76.131z"/>
	<g>
		<path fill="#FFFFFF" d="M62.675,55.359l-5.712,5.312L45.528,48.384L32.734,60.289l-5.313-5.709l15.647-14.563
			c0.759-0.707,1.764-1.08,2.798-1.043c1.035,0.038,2.01,0.482,2.716,1.24L62.675,55.359z"/>
	</g>
</g>
</svg>
